  0
SECTION
  2
HEADER
  9
$ACADVER
  1
AC1009
  9
$INSBASE
 10
0.0
 20
0.0
 30
0.0
  9
$EXTMIN
 10
0.0
 20
0.0
 30
0.0
  9
$EXTMAX
 10
0.0
 20
0.0
 30
0.0
  0
ENDSEC
  0
SECTION
  2
TABLES
  0
TABLE
  2
VPORT
 70
0
  0
ENDTAB
  0
TABLE
  2
LTYPE
 70
1
  0
LTYPE
  2
CONTINUOUS
 70
0
  3
Solid line
 72
65
 73
0
 40
0.0
  0
ENDTAB
  0
TABLE
  2
LAYER
 70
1
  0
LAYER
  2
0
 70
64
 62
7
  6
continuous
  0
ENDTAB
  0
TABLE
  2
STYLE
 70
1
  0
STYLE
  2
STANDARD
 70
0
 40
0
 41
1.0
 50
0.0
 71
0
 42
1
 3
ARIAL.TTF
 4

  0
ENDTAB
  0
TABLE
  2
VIEW
 70
0
  0
ENDTAB
  0
ENDSEC
  0
SECTION
  2
BLOCKS
  0
ENDSEC
  0
SECTION
  2
ENTITIES
  0
LINE
  8
0
 62
0
 10
164.442544328
 20
92.6711797988
 30
0.0
 11
164.442544328
 21
89.9211797988
 31
0.0
  0
LINE
  8
0
 62
0
 10
164.442544328
 20
94.2711797988
 30
0.0
 11
164.442544328
 21
95.9711797988
 31
0.0
  0
LINE
  8
0
 62
0
 10
164.442544328
 20
95.9711797988
 30
0.0
 11
164.442544328
 21
94.2711797988
 31
0.0
  0
LINE
  8
0
 62
0
 10
187.442544328
 20
88.9211797988
 30
0.0
 11
165.442544328
 21
88.9211797988
 31
0.0
  0
LINE
  8
0
 62
0
 10
187.442544328
 20
88.9211797988
 30
0.0
 11
165.442544328
 21
88.9211797988
 31
0.0
  0
LINE
  8
0
 62
0
 10
164.442544328
 20
92.6711797988
 30
0.0
 11
164.442544328
 21
89.9211797988
 31
0.0
  0
LINE
  8
0
 62
0
 10
187.742544328
 20
97.9711797988
 30
0.0
 11
188.442544328
 21
97.9711797988
 31
0.0
  0
LINE
  8
0
 62
0
 10
187.742544328
 20
95.9711797988
 30
0.0
 11
188.442544328
 21
95.9711797988
 31
0.0
  0
LINE
  8
0
 62
0
 10
170.042544328
 20
114.7711797988
 30
0.0
 11
170.042544328
 21
115.6711797988
 31
0.0
  0
LINE
  8
0
 62
0
 10
172.392544328
 20
115.5211797988
 30
0.0
 11
172.392544328
 21
114.2211797988
 31
0.0
  0
LINE
  8
0
 62
0
 10
172.392544328
 20
115.5211797988
 30
0.0
 11
172.392544328
 21
114.2211797988
 31
0.0
  0
LINE
  8
0
 62
0
 10
165.142544328
 20
95.9711797988
 30
0.0
 11
164.442544328
 21
95.9711797988
 31
0.0
  0
LINE
  8
0
 62
0
 10
170.042544328
 20
114.7711797988
 30
0.0
 11
170.042544328
 21
115.6711797988
 31
0.0
  0
LINE
  8
0
 62
0
 10
165.142544328
 20
97.9711797988
 30
0.0
 11
164.442544328
 21
97.9711797988
 31
0.0
  0
LINE
  8
0
 62
0
 10
165.142544328
 20
95.9711797988
 30
0.0
 11
164.442544328
 21
95.9711797988
 31
0.0
  0
LINE
  8
0
 62
0
 10
171.617544328
 20
115.0872052026
 30
0.0
 11
171.617544328
 21
115.6711797988
 31
0.0
  0
LINE
  8
0
 62
0
 10
171.617544328
 20
115.0872052026
 30
0.0
 11
171.617544328
 21
115.6711797988
 31
0.0
  0
LINE
  8
0
 62
0
 10
164.442544328
 20
97.9711797988
 30
0.0
 11
165.142544328
 21
97.9711797988
 31
0.0
  0
LINE
  8
0
 62
0
 10
187.742544328
 20
97.9711797988
 30
0.0
 11
188.442544328
 21
97.9711797988
 31
0.0
  0
LINE
  8
0
 62
0
 10
188.442544328
 20
94.2711797988
 30
0.0
 11
188.442544328
 21
95.9711797988
 31
0.0
  0
LINE
  8
0
 62
0
 10
181.267544328
 20
113.7211797988
 30
0.0
 11
180.992544328
 21
113.7211797988
 31
0.0
  0
LINE
  8
0
 62
0
 10
188.442544328
 20
89.9211797988
 30
0.0
 11
188.442544328
 21
92.6711797988
 31
0.0
  0
LINE
  8
0
 62
0
 10
181.267544328
 20
115.0872052026
 30
0.0
 11
181.267544328
 21
115.6711797988
 31
0.0
  0
LINE
  8
0
 62
0
 10
180.492544328
 20
114.2211797988
 30
0.0
 11
180.492544328
 21
115.5211797988
 31
0.0
  0
LINE
  8
0
 62
0
 10
181.267544328
 20
115.0872052026
 30
0.0
 11
181.267544328
 21
115.6711797988
 31
0.0
  0
LINE
  8
0
 62
0
 10
182.842544328
 20
114.7711797988
 30
0.0
 11
182.842544328
 21
115.6711797988
 31
0.0
  0
LINE
  8
0
 62
0
 10
182.842544328
 20
114.7711797988
 30
0.0
 11
182.842544328
 21
115.6711797988
 31
0.0
  0
LINE
  8
0
 62
0
 10
188.442544328
 20
94.2711797988
 30
0.0
 11
188.442544328
 21
95.9711797988
 31
0.0
  0
LINE
  8
0
 62
0
 10
188.442544328
 20
89.9211797988
 30
0.0
 11
188.442544328
 21
92.6711797988
 31
0.0
  0
LINE
  8
0
 62
0
 10
188.442544328
 20
97.9711797988
 30
0.0
 11
188.442544328
 21
112.7711797988
 31
0.0
  0
LINE
  8
0
 62
0
 10
188.442544328
 20
97.9711797988
 30
0.0
 11
188.442544328
 21
112.7711797988
 31
0.0
  0
LINE
  8
0
 62
0
 10
180.492544328
 20
114.2211797988
 30
0.0
 11
180.492544328
 21
115.5211797988
 31
0.0
  0
LINE
  8
0
 62
0
 10
187.742544328
 20
92.6711797988
 30
0.0
 11
188.442544328
 21
92.6711797988
 31
0.0
  0
LINE
  8
0
 62
0
 10
187.742544328
 20
94.2711797988
 30
0.0
 11
188.442544328
 21
94.2711797988
 31
0.0
  0
LINE
  8
0
 62
0
 10
188.442544328
 20
95.9711797988
 30
0.0
 11
187.742544328
 21
95.9711797988
 31
0.0
  0
LINE
  8
0
 62
0
 10
187.742544328
 20
92.6711797988
 30
0.0
 11
188.442544328
 21
92.6711797988
 31
0.0
  0
LINE
  8
0
 62
0
 10
164.442544328
 20
97.9711797988
 30
0.0
 11
164.442544328
 21
112.7711797988
 31
0.0
  0
LINE
  8
0
 62
0
 10
165.142544328
 20
94.2711797988
 30
0.0
 11
164.442544328
 21
94.2711797988
 31
0.0
  0
LINE
  8
0
 62
0
 10
172.392544328
 20
115.5211797988
 30
0.0
 11
172.692544328
 21
115.8211797988
 31
0.0
  0
LINE
  8
0
 62
0
 10
164.442544328
 20
92.6711797988
 30
0.0
 11
165.142544328
 21
92.6711797988
 31
0.0
  0
LINE
  8
0
 62
0
 10
165.142544328
 20
94.2711797988
 30
0.0
 11
164.442544328
 21
94.2711797988
 31
0.0
  0
LINE
  8
0
 62
0
 10
187.742544328
 20
94.2711797988
 30
0.0
 11
188.442544328
 21
94.2711797988
 31
0.0
  0
LINE
  8
0
 62
0
 10
164.442544328
 20
97.9711797988
 30
0.0
 11
164.442544328
 21
112.7711797988
 31
0.0
  0
LINE
  8
0
 62
0
 10
172.392544328
 20
115.5211797988
 30
0.0
 11
172.692544328
 21
115.8211797988
 31
0.0
  0
LINE
  8
0
 62
0
 10
164.442544328
 20
92.6711797988
 30
0.0
 11
165.142544328
 21
92.6711797988
 31
0.0
  0
LINE
  8
0
 62
0
 10
171.117544328
 20
116.1711797988
 30
0.0
 11
170.542544328
 21
116.1711797988
 31
0.0
  0
ARC
  8
0
 62
0
 10
165.142544328
 20
96.9711797988
 30
0.0
 40
2.000000000000001
 50
-110.48731511469971
 51
110.48731511469971
  0
ARC
  8
0
 62
0
 10
165.142544328
 20
93.4711797988
 30
0.0
 40
0.7999999999999972
 50
-90.0
 51
90.0
  0
ARC
  8
0
 62
0
 10
165.442544328
 20
89.9211797988
 30
0.0
 40
1.0
 50
-180.0
 51
-90.0
  0
ARC
  8
0
 62
0
 10
165.442544328
 20
89.9211797988
 30
0.0
 40
1.0
 50
-180.0
 51
-90.0
  0
ARC
  8
0
 62
0
 10
165.442544328
 20
112.7711797988
 30
0.0
 40
1.0
 50
90.0
 51
-180.0
  0
ARC
  8
0
 62
0
 10
165.442544328
 20
112.7711797988
 30
0.0
 40
1.0
 50
90.0
 51
-180.0
  0
ARC
  8
0
 62
0
 10
165.142544328
 20
96.9711797988
 30
0.0
 40
1.0
 50
-90.0
 51
90.0
  0
ARC
  8
0
 62
0
 10
169.042544328
 20
114.7711797988
 30
0.0
 40
1.0
 50
-90.0
 51
-0.0
  0
LINE
  8
0
 62
0
 10
171.117544328
 20
116.1711797988
 30
0.0
 11
170.542544328
 21
116.1711797988
 31
0.0
  0
ARC
  8
0
 62
0
 10
165.142544328
 20
96.9711797988
 30
0.0
 40
1.0
 50
-90.0
 51
90.0
  0
ARC
  8
0
 62
0
 10
165.142544328
 20
96.9711797988
 30
0.0
 40
2.000000000000001
 50
-110.48731511469971
 51
110.48731511469971
  0
ARC
  8
0
 62
0
 10
165.142544328
 20
93.4711797988
 30
0.0
 40
0.7999999999999972
 50
-90.0
 51
90.0
  0
LINE
  8
0
 62
0
 10
180.192544328
 20
115.8211797988
 30
0.0
 11
172.692544328
 21
115.8211797988
 31
0.0
  0
LINE
  8
0
 62
0
 10
171.892544328
 20
113.7211797988
 30
0.0
 11
171.617544328
 21
113.7211797988
 31
0.0
  0
LINE
  8
0
 62
0
 10
183.842544328
 20
113.7711797988
 30
0.0
 11
187.442544328
 21
113.7711797988
 31
0.0
  0
LINE
  8
0
 62
0
 10
183.842544328
 20
113.7711797988
 30
0.0
 11
187.442544328
 21
113.7711797988
 31
0.0
  0
LINE
  8
0
 62
0
 10
169.042544328
 20
113.7711797988
 30
0.0
 11
165.442544328
 21
113.7711797988
 31
0.0
  0
LINE
  8
0
 62
0
 10
180.192544328
 20
115.8211797988
 30
0.0
 11
180.492544328
 21
115.5211797988
 31
0.0
  0
LINE
  8
0
 62
0
 10
180.192544328
 20
115.8211797988
 30
0.0
 11
172.692544328
 21
115.8211797988
 31
0.0
  0
LINE
  8
0
 62
0
 10
182.342544328
 20
116.1711797988
 30
0.0
 11
181.767544328
 21
116.1711797988
 31
0.0
  0
LINE
  8
0
 62
0
 10
182.342544328
 20
116.1711797988
 30
0.0
 11
181.767544328
 21
116.1711797988
 31
0.0
  0
LINE
  8
0
 62
0
 10
181.267544328
 20
113.7211797988
 30
0.0
 11
180.992544328
 21
113.7211797988
 31
0.0
  0
LINE
  8
0
 62
0
 10
180.192544328
 20
115.8211797988
 30
0.0
 11
180.492544328
 21
115.5211797988
 31
0.0
  0
LINE
  8
0
 62
0
 10
169.042544328
 20
113.7711797988
 30
0.0
 11
165.442544328
 21
113.7711797988
 31
0.0
  0
LINE
  8
0
 62
0
 10
171.892544328
 20
113.7211797988
 30
0.0
 11
171.617544328
 21
113.7211797988
 31
0.0
  0
ARC
  8
0
 62
0
 10
170.542544328
 20
115.6711797988
 30
0.0
 40
0.5
 50
90.0
 51
-180.0
  0
ARC
  8
0
 62
0
 10
170.542544328
 20
115.6711797988
 30
0.0
 40
0.5
 50
90.0
 51
-180.0
  0
ARC
  8
0
 62
0
 10
187.442544328
 20
89.9211797988
 30
0.0
 40
1.0
 50
-90.0
 51
-0.0
  0
ARC
  8
0
 62
0
 10
171.892544328
 20
114.2211797988
 30
0.0
 40
0.5
 50
-90.0
 51
-0.0
  0
ARC
  8
0
 62
0
 10
171.117544328
 20
115.0872052026
 30
0.0
 40
0.5000000000000063
 50
-59.99999999989888
 51
-0.0
  0
ARC
  8
0
 62
0
 10
171.117544328
 20
115.6711797988
 30
0.0
 40
0.5
 50
-0.0
 51
90.0
  0
ARC
  8
0
 62
0
 10
171.617544328
 20
114.2211797988
 30
0.0
 40
0.5000000000000063
 50
120.00000000010114
 51
-90.0
  0
ARC
  8
0
 62
0
 10
171.117544328
 20
115.0872052026
 30
0.0
 40
0.5000000000000063
 50
-59.99999999989888
 51
-0.0
  0
ARC
  8
0
 62
0
 10
187.442544328
 20
89.9211797988
 30
0.0
 40
1.0
 50
-90.0
 51
-0.0
  0
ARC
  8
0
 62
0
 10
169.042544328
 20
114.7711797988
 30
0.0
 40
1.0
 50
-90.0
 51
-0.0
  0
ARC
  8
0
 62
0
 10
171.892544328
 20
114.2211797988
 30
0.0
 40
0.5
 50
-90.0
 51
-0.0
  0
ARC
  8
0
 62
0
 10
171.617544328
 20
114.2211797988
 30
0.0
 40
0.5000000000000063
 50
120.00000000010114
 51
-90.0
  0
ARC
  8
0
 62
0
 10
171.117544328
 20
115.6711797988
 30
0.0
 40
0.5
 50
-0.0
 51
90.0
  0
ARC
  8
0
 62
0
 10
187.742544328
 20
96.9711797988
 30
0.0
 40
2.000000000000001
 50
69.5126848853003
 51
-69.5126848853003
  0
ARC
  8
0
 62
0
 10
181.767544328
 20
115.6711797988
 30
0.0
 40
0.5
 50
90.0
 51
-180.0
  0
ARC
  8
0
 62
0
 10
187.742544328
 20
96.9711797988
 30
0.0
 40
1.0
 50
90.0
 51
-90.0
  0
ARC
  8
0
 62
0
 10
187.742544328
 20
93.4711797988
 30
0.0
 40
0.7999999999999972
 50
90.0
 51
-90.0
  0
ARC
  8
0
 62
0
 10
180.992544328
 20
114.2211797988
 30
0.0
 40
0.5
 50
-180.0
 51
-90.0
  0
ARC
  8
0
 62
0
 10
182.342544328
 20
115.6711797988
 30
0.0
 40
0.5
 50
-0.0
 51
90.0
  0
ARC
  8
0
 62
0
 10
180.992544328
 20
114.2211797988
 30
0.0
 40
0.5
 50
-180.0
 51
-90.0
  0
ARC
  8
0
 62
0
 10
187.742544328
 20
96.9711797988
 30
0.0
 40
1.0
 50
90.0
 51
-90.0
  0
ARC
  8
0
 62
0
 10
187.742544328
 20
96.9711797988
 30
0.0
 40
2.000000000000001
 50
69.5126848853003
 51
-69.5126848853003
  0
ARC
  8
0
 62
0
 10
187.742544328
 20
93.4711797988
 30
0.0
 40
0.7999999999999972
 50
90.0
 51
-90.0
  0
ARC
  8
0
 62
0
 10
181.267544328
 20
114.2211797988
 30
0.0
 40
0.5
 50
-90.0
 51
59.99999999989888
  0
ARC
  8
0
 62
0
 10
181.267544328
 20
114.2211797988
 30
0.0
 40
0.5
 50
-90.0
 51
59.99999999989888
  0
ARC
  8
0
 62
0
 10
181.767544328
 20
115.0872052026
 30
0.0
 40
0.5
 50
-180.0
 51
-120.00000000010114
  0
ARC
  8
0
 62
0
 10
181.767544328
 20
115.6711797988
 30
0.0
 40
0.5
 50
90.0
 51
-180.0
  0
ARC
  8
0
 62
0
 10
187.442544328
 20
112.7711797988
 30
0.0
 40
1.0
 50
-0.0
 51
90.0
  0
ARC
  8
0
 62
0
 10
183.842544328
 20
114.7711797988
 30
0.0
 40
1.0
 50
-180.0
 51
-90.0
  0
ARC
  8
0
 62
0
 10
181.767544328
 20
115.0872052026
 30
0.0
 40
0.5
 50
-180.0
 51
-120.00000000010114
  0
ARC
  8
0
 62
0
 10
183.842544328
 20
114.7711797988
 30
0.0
 40
1.0
 50
-180.0
 51
-90.0
  0
ARC
  8
0
 62
0
 10
187.442544328
 20
112.7711797988
 30
0.0
 40
1.0
 50
-0.0
 51
90.0
  0
ARC
  8
0
 62
0
 10
182.342544328
 20
115.6711797988
 30
0.0
 40
0.5
 50
-0.0
 51
90.0
  0
ENDSEC
  0
EOF
