999
DXF file: fw_ex_3party_wo_lid_outline.dxf
999
Pro/ENGINEER 2018020 by Parametric Technology Corporation
  0
SECTION
  2
HEADER
  9
$ACADVER
  1
AC1015
  9
$DWGCODEPAGE
  3
ANSI_950
  9
$EXTMAX
 10
297.0
 20
210.0
 30
0.0
  9
$EXTMIN
 10
0.0
 20
0.0
 30
0.0
  9
$LIMMIN
 10
0.0
 20
0.0
  9
$LIMMAX
 10
297.0
 20
210.0
  9
$VIEWCTR
 10
148.5
 20
105.0
  9
$VIEWSIZE
 40
210.0
  9
$CLAYER
  8
0
  9
$LTSCALE
 40
16.335
  9
$CELTYPE
  6
BYLAYER
  9
$DIMSCALE
 40
1.0
  9
$DIMASZ
 40
3.0
  9
$DIMEXO
 40
1.0
  9
$DIMDLI
 40
11.286
  9
$DIMEXE
 40
1.0
  9
$DIMCEN
 40
2.673
  9
$DIMLFAC
 40
1.0
  9
$DIMBLK
  1
_FILLED
  9
$DIMALT
 70
0
  9
$DIMALTF
 40
25.4
  9
$DIMTXT
 40
3.0
  9
$DIMTOL
 70
1
  9
$DIMLIM
 70
0
  9
$DIMTFAC
 40
1.0
  9
$DIMTP
 40
0.01
  9
$DIMTM
 40
0.01
  9
$DIMGAP
 40
0.625
  9
$DIMDSEP
 70
46
  9
$AUNITS
 70
0
  9
$PDMODE
 70
3
  9
$PDSIZE
 40
8.0
  9
$HANDSEED
  5
252
  9
$TILEMODE
 70
1
  9
$MEASUREMENT
 70
1
  9
$INSUNITS
 70
4
  0
ENDSEC
  0
SECTION
  2
CLASSES
  0
CLASS
  1
ACDBDICTIONARYWDFLT
  2
AcDbDictionaryWithDefault
  3
AutoCAD 2000
 90
0
280
0
281
0
  0
CLASS
  1
ACDBPLACEHOLDER
  2
AcDbPlaceHolder
  3
AutoCAD 2000
 90
0
280
0
281
0
  0
CLASS
  1
LAYOUT
  2
AcDbLayout
  3
AutoCAD 2000
 90
0
280
0
281
0
  0
ENDSEC
  0
SECTION
  2
TABLES
  0
TABLE
  2
VPORT
  5
8
100
AcDbSymbolTable
 70
2
  0
VPORT
  5
1F4
100
AcDbSymbolTableRecord
100
AcDbViewportTableRecord
  2
*ACTIVE
 70
0
 10
0.0
 20
0.0
 11
1.0
 21
1.0
 12
148.5
 22
105.0
 13
0.0
 23
0.0
 14
1.0
 24
1.0
 15
0.0
 25
0.0
 16
0.0
 26
0.0
 36
1.0
 17
0.0
 27
0.0
 37
0.0
 40
210.0
 41
1.4142857143
 42
50.0
 43
0.0
 44
0.0
 50
0.0
 51
0.0
 71
0
 72
100
 73
1
 74
1
 75
0
 76
0
 77
0
 78
0
  0
ENDTAB
  0
TABLE
  2
LTYPE
  5
5
100
AcDbSymbolTable
 70
6
  0
LTYPE
  5
14
100
AcDbSymbolTableRecord
100
AcDbLinetypeTableRecord
  2
BYBLOCK
 70
0
  3

 72
65
 73
0
 40
0.0
  0
LTYPE
  5
15
100
AcDbSymbolTableRecord
100
AcDbLinetypeTableRecord
  2
BYLAYER
 70
0
  3

 72
65
 73
0
 40
0.0
  0
LTYPE
  5
16
100
AcDbSymbolTableRecord
100
AcDbLinetypeTableRecord
  2
CONTINUOUS
 70
64
  3
Solid line
 72
65
 73
0
 40
0.0
  0
LTYPE
  5
1F5
100
AcDbSymbolTableRecord
100
AcDbLinetypeTableRecord
  2
CENTER
 70
64
  3
____ _ ____ _ ____ _ ____ _ ____ _ ____ _ ____
 72
65
 73
4
 40
0.6
 49
0.375
 74
0
 49
-0.075
 74
0
 49
0.075
 74
0
 49
-0.075
 74
0
  0
LTYPE
  5
1F6
100
AcDbSymbolTableRecord
100
AcDbLinetypeTableRecord
  2
HIDDEN
 70
64
  3
- - - - - - - - - - - - - - - - - - - -
 72
65
 73
2
 40
0.2
 49
0.1
 74
0
 49
-0.1
 74
0
  0
LTYPE
  5
1F7
100
AcDbSymbolTableRecord
100
AcDbLinetypeTableRecord
  2
PHANTOM
 70
64
  3
_____ _ _ _____ _ _ _____ _ _ _____
 72
65
 73
6
 40
0.8
 49
0.45
 74
0
 49
-0.05
 74
0
 49
0.1
 74
0
 49
-0.05
 74
0
 49
0.1
 74
0
 49
-0.05
 74
0
  0
LTYPE
  5
1F8
100
AcDbSymbolTableRecord
100
AcDbLinetypeTableRecord
  2
DOT
 70
64
  3
. . . . . . . . . . . . . . . . . . . .
 72
65
 73
2
 40
0.2
 49
0.1
 74
0
 49
-0.1
 74
0
  0
LTYPE
  5
1F9
100
AcDbSymbolTableRecord
100
AcDbLinetypeTableRecord
  2
DASHED
 70
64
  3
- - - - - - - - - - - - - - - - - - - -
 72
65
 73
2
 40
0.2
 49
0.1
 74
0
 49
-0.1
 74
0
  0
ENDTAB
  0
TABLE
  2
LAYER
  5
2
100
AcDbSymbolTable
 70
36
  0
LAYER
  5
10
100
AcDbSymbolTableRecord
100
AcDbLayerTableRecord
  2
0
 70
0
 62
7
  6
CONTINUOUS
370
-3
390
F
  0
LAYER
  5
1FA
100
AcDbSymbolTableRecord
100
AcDbLayerTableRecord
  2
DEFAULT_1
 70
0
 62
7
  6
CENTER
370
-3
390
F
  0
LAYER
  5
1FB
100
AcDbSymbolTableRecord
100
AcDbLayerTableRecord
  2
DEFAULT_2
 70
0
 62
7
  6
HIDDEN
370
-3
390
F
  0
LAYER
  5
1FC
100
AcDbSymbolTableRecord
100
AcDbLayerTableRecord
  2
DEFAULT_3
 70
0
 62
7
  6
PHANTOM
370
-3
390
F
  0
LAYER
  5
1FD
100
AcDbSymbolTableRecord
100
AcDbLayerTableRecord
  2
3_AXES
 70
0
 62
7
  6
CONTINUOUS
370
-3
390
F
  0
LAYER
  5
1FE
100
AcDbSymbolTableRecord
100
AcDbLayerTableRecord
  2
5_CURVES
 70
0
 62
7
  6
CONTINUOUS
370
-3
390
F
  0
ENDTAB
  0
TABLE
  2
STYLE
  5
3
100
AcDbSymbolTable
 70
1
  0
STYLE
  5
11
100
AcDbSymbolTableRecord
100
AcDbTextStyleTableRecord
  2
STANDARD
 70
0
 40
0.0
 41
0.8
 50
0.0
 71
0
 42
0.2
  3
SIMPLEX.SHX
  4

  0
STYLE
  5
1FF
100
AcDbSymbolTableRecord
100
AcDbTextStyleTableRecord
  2
TEXTSTYLE_1
 70
0
 40
0.0
 41
0.8
 50
0.0
 71
0
 42
0.2
  3
gdt
  4

  0
ENDTAB
  0
TABLE
  2
VIEW
  5
6
100
AcDbSymbolTable
 70
0
  0
ENDTAB
  0
TABLE
  2
UCS
  5
7
100
AcDbSymbolTable
 70
0
  0
ENDTAB
  0
TABLE
  2
APPID
  5
9
100
AcDbSymbolTable
 70
1
  0
APPID
  5
200
100
AcDbSymbolTableRecord
100
AcDbRegAppTableRecord
  2
ACAD
 70
0
  0
ENDTAB
  0
TABLE
  2
BLOCK_RECORD
  5
1
100
AcDbSymbolTable
 70
0
  0
BLOCK_RECORD
  5
201
100
AcDbSymbolTableRecord
100
AcDbBlockTableRecord
  2
*Model_Space
  0
BLOCK_RECORD
  5
202
100
AcDbSymbolTableRecord
100
AcDbBlockTableRecord
  2
*Paper_Space
  0
BLOCK_RECORD
  5
203
100
AcDbSymbolTableRecord
100
AcDbBlockTableRecord
  2
_FILLED
  0
ENDTAB
  0
TABLE
  2
DIMSTYLE
  5
A
100
AcDbSymbolTable
 70
1
100
AcDbDimStyleTable
 71
0
  0
DIMSTYLE
105
204
100
AcDbSymbolTableRecord
100
AcDbDimStyleTableRecord
  2
STANDARD
 70
0
  3

  4

 40
1.0
 41
3.0
 42
1.0
 43
0.38
 44
1.0
 45
0.0
 46
0.0
 47
0.01
 48
0.01
140
3.0
141
0.09
142
0.0
143
25.4
144
1.0
145
0.0
146
1.0
147
0.625
 71
1.0
 72
0.0
 73
0
 74
0
 75
0
 76
0
 77
1
 78
0
 79
0
170
0
171
1
172
0
173
0
174
0
175
0
176
0
177
0
178
0
270
2
179
2
271
2
272
2
273
2
274
2
275
0
280
0
281
0
282
0
283
1
284
0
285
0
286
0
287
3
288
0
340
11
278
46
341
203
342
203
343
203
344
203
  0
ENDTAB
  0
ENDSEC
  0
SECTION
  2
BLOCKS
  0
BLOCK
  5
20
100
AcDbEntity
  8
0
100
AcDbBlockBegin
  2
*Model_Space
 70
0
 10
0.0
 20
0.0
 30
0.0
  3
*Model_Space
  1

  0
ENDBLK
  5
21
100
AcDbEntity
  8
0
100
AcDbBlockEnd
  0
BLOCK
  5
1C
100
AcDbEntity
  8
0
100
AcDbBlockBegin
  2
*Paper_Space
 70
0
 10
0.0
 20
0.0
 30
0.0
  3
*Paper_Space
  1

  0
ENDBLK
  5
1D
100
AcDbEntity
  8
0
100
AcDbBlockEnd
  0
BLOCK
  5
205
100
AcDbEntity
  8
0
100
AcDbBlockBegin
  2
_FILLED
 70
64
 10
0.0
 20
0.0
  3
_FILLED
  1

  0
SOLID
  5
206
100
AcDbEntity
  8
0
  6
BYBLOCK
 62
0
100
AcDbTrace
 10
0.0
 20
0.0
 11
-1.0
 21
0.1666666667
 12
-1.0
 22
-0.1666666667
 13
-1.0
 23
-0.1666666667
  0
ENDBLK
  5
207
100
AcDbEntity
  8
0
  6
BYBLOCK
 62
0
100
AcDbBlockEnd
  0
ENDSEC
  0
SECTION
  2
ENTITIES
  0
LINE
  5
208
100
AcDbEntity
  8
0
100
AcDbLine
 62
7
  6
BYLAYER
 10
70.3271705554
 20
120.2435951491
 11
69.9129565904
 21
119.8293811841
  0
LINE
  5
209
100
AcDbEntity
  8
5_CURVES
100
AcDbLine
 62
7
  6
BYLAYER
 10
70.3271705554
 20
120.2435951491
 11
69.9129565904
 21
119.8293811841
  0
LINE
  5
20A
100
AcDbEntity
  8
0
100
AcDbLine
 62
7
  6
BYLAYER
 10
70.6200633716
 20
93.5364883679
 11
94.6724293716
 21
93.5364883679
  0
LINE
  5
20B
100
AcDbEntity
  8
5_CURVES
100
AcDbLine
 62
7
  6
BYLAYER
 10
70.6200633716
 20
93.5364883679
 11
94.6724293716
 21
93.5364883679
  0
LINE
  5
20C
100
AcDbEntity
  8
5_CURVES
100
AcDbLine
 62
7
  6
BYLAYER
 10
69.6200633716
 20
94.5364883679
 11
69.6200633716
 21
102.5405401037
  0
LINE
  5
20D
100
AcDbEntity
  8
0
100
AcDbLine
 62
7
  6
BYLAYER
 10
69.6200633716
 20
94.5364883679
 11
69.6200633716
 21
119.1222744029
  0
LINE
  5
20E
100
AcDbEntity
  8
5_CURVES
100
AcDbLine
 62
7
  6
BYLAYER
 10
69.6200633716
 20
104.932436632
 11
69.6200633716
 21
119.1222744029
  0
LINE
  5
20F
100
AcDbEntity
  8
0
100
AcDbLine
 62
7
  6
BYLAYER
 10
70.6200637742
 20
122.2364883679
 11
70.6200637742
 21
120.9507019302
  0
LINE
  5
210
100
AcDbEntity
  8
5_CURVES
100
AcDbLine
 62
7
  6
BYLAYER
 10
70.6200637742
 20
122.2364883679
 11
70.6200637742
 21
120.9507019302
  0
LINE
  5
211
100
AcDbEntity
  8
0
100
AcDbLine
 62
7
  6
BYLAYER
 10
77.9462463716
 20
122.9364883679
 11
77.9462463716
 21
121.5364883679
  0
LINE
  5
212
100
AcDbEntity
  8
5_CURVES
100
AcDbLine
 62
7
  6
BYLAYER
 10
77.9462463716
 20
122.9364883679
 11
77.9462463716
 21
121.5364883679
  0
LINE
  5
213
100
AcDbEntity
  8
0
100
AcDbLine
 62
7
  6
BYLAYER
 10
79.5962463716
 20
121.5364883679
 11
79.5962463716
 21
121.8964883679
  0
LINE
  5
214
100
AcDbEntity
  8
5_CURVES
100
AcDbLine
 62
7
  6
BYLAYER
 10
79.5962463716
 20
121.5364883679
 11
79.5962463716
 21
121.8964883679
  0
LINE
  5
215
100
AcDbEntity
  8
0
100
AcDbLine
 62
7
  6
BYLAYER
 10
85.6962463716
 20
121.8964883679
 11
85.6962463716
 21
121.5364883679
  0
LINE
  5
216
100
AcDbEntity
  8
5_CURVES
100
AcDbLine
 62
7
  6
BYLAYER
 10
85.6962463716
 20
121.8964883679
 11
85.6962463716
 21
121.5364883679
  0
LINE
  5
217
100
AcDbEntity
  8
0
100
AcDbLine
 62
7
  6
BYLAYER
 10
87.3462463716
 20
121.5364883679
 11
87.3462463716
 21
122.9364883679
  0
LINE
  5
218
100
AcDbEntity
  8
5_CURVES
100
AcDbLine
 62
7
  6
BYLAYER
 10
87.3462463716
 20
121.5364883679
 11
87.3462463716
 21
122.9364883679
  0
LINE
  5
219
100
AcDbEntity
  8
0
100
AcDbLine
 62
7
  6
BYLAYER
 10
94.672428969
 20
122.2364883679
 11
94.672428969
 21
120.9507019302
  0
LINE
  5
21A
100
AcDbEntity
  8
5_CURVES
100
AcDbLine
 62
7
  6
BYLAYER
 10
94.672428969
 20
122.2364883679
 11
94.672428969
 21
120.9507019302
  0
LINE
  5
21B
100
AcDbEntity
  8
5_CURVES
100
AcDbLine
 62
7
  6
BYLAYER
 10
95.6724293716
 20
94.5364883679
 11
95.6724293716
 21
102.5405401037
  0
LINE
  5
21C
100
AcDbEntity
  8
0
100
AcDbLine
 62
7
  6
BYLAYER
 10
95.6724293716
 20
94.5364883679
 11
95.6724293716
 21
119.1222744029
  0
LINE
  5
21D
100
AcDbEntity
  8
5_CURVES
100
AcDbLine
 62
7
  6
BYLAYER
 10
95.6724293716
 20
104.932436632
 11
95.6724293716
 21
119.1222744029
  0
LINE
  5
21E
100
AcDbEntity
  8
0
100
AcDbLine
 62
7
  6
BYLAYER
 10
78.2462463716
 20
121.2364883679
 11
79.2962463716
 21
121.2364883679
  0
LINE
  5
21F
100
AcDbEntity
  8
5_CURVES
100
AcDbLine
 62
7
  6
BYLAYER
 10
78.2462463716
 20
121.2364883679
 11
79.2962463716
 21
121.2364883679
  0
LINE
  5
220
100
AcDbEntity
  8
0
100
AcDbLine
 62
7
  6
BYLAYER
 10
85.9962463716
 20
121.2364883679
 11
87.0462463716
 21
121.2364883679
  0
LINE
  5
221
100
AcDbEntity
  8
5_CURVES
100
AcDbLine
 62
7
  6
BYLAYER
 10
85.9962463716
 20
121.2364883679
 11
87.0462463716
 21
121.2364883679
  0
LINE
  5
222
100
AcDbEntity
  8
0
100
AcDbLine
 62
7
  6
BYLAYER
 10
79.8962463716
 20
122.1964883679
 11
85.3962463716
 21
122.1964883679
  0
LINE
  5
223
100
AcDbEntity
  8
5_CURVES
100
AcDbLine
 62
7
  6
BYLAYER
 10
79.8962463716
 20
122.1964883679
 11
85.3962463716
 21
122.1964883679
  0
LINE
  5
224
100
AcDbEntity
  8
0
100
AcDbLine
 62
7
  6
BYLAYER
 10
71.6200637742
 20
123.2364883679
 11
77.6462463716
 21
123.2364883679
  0
LINE
  5
225
100
AcDbEntity
  8
5_CURVES
100
AcDbLine
 62
7
  6
BYLAYER
 10
71.6200637742
 20
123.2364883679
 11
77.6462463716
 21
123.2364883679
  0
LINE
  5
226
100
AcDbEntity
  8
0
100
AcDbLine
 62
7
  6
BYLAYER
 10
87.6462463716
 20
123.2364883679
 11
93.672428969
 21
123.2364883679
  0
LINE
  5
227
100
AcDbEntity
  8
5_CURVES
100
AcDbLine
 62
7
  6
BYLAYER
 10
87.6462463716
 20
123.2364883679
 11
93.672428969
 21
123.2364883679
  0
LINE
  5
228
100
AcDbEntity
  8
0
100
AcDbLine
 62
7
  6
BYLAYER
 10
95.3795361527
 20
119.8293811841
 11
94.9653221878
 21
120.2435951491
  0
LINE
  5
229
100
AcDbEntity
  8
5_CURVES
100
AcDbLine
 62
7
  6
BYLAYER
 10
95.3795361527
 20
119.8293811841
 11
94.9653221878
 21
120.2435951491
  0
ARC
  5
22A
100
AcDbEntity
  8
0
100
AcDbCircle
 62
7
  6
BYLAYER
 10
71.3462463716
 20
103.7364883679
 40
2.1
100
AcDbArc
 50
214.7153089728
 51
145.2846910272
  0
ARC
  5
22B
100
AcDbEntity
  8
5_CURVES
100
AcDbCircle
 62
7
  6
BYLAYER
 10
71.3462463716
 20
103.7364883679
 40
2.1
100
AcDbArc
 50
214.7153089728
 51
145.2846910272
  0
CIRCLE
  5
22C
100
AcDbEntity
  8
0
100
AcDbCircle
 62
7
  6
BYLAYER
 10
71.3462463716
 20
103.7364883679
 40
1.1
  0
ARC
  5
22D
100
AcDbEntity
  8
0
100
AcDbCircle
 62
7
  6
BYLAYER
 10
70.6200633716
 20
94.5364883679
 40
1.0
100
AcDbArc
 50
180.0
 51
270.0
  0
ARC
  5
22E
100
AcDbEntity
  8
5_CURVES
100
AcDbCircle
 62
7
  6
BYLAYER
 10
70.6200633716
 20
94.5364883679
 40
1.0
100
AcDbArc
 50
180.0
 51
270.0
  0
ARC
  5
22F
100
AcDbEntity
  8
0
100
AcDbCircle
 62
7
  6
BYLAYER
 10
70.6200633716
 20
119.1222744029
 40
1.0
100
AcDbArc
 50
135.0
 51
180.0
  0
ARC
  5
230
100
AcDbEntity
  8
0
100
AcDbCircle
 62
7
  6
BYLAYER
 10
71.6200637742
 20
122.2364883679
 40
1.0
100
AcDbArc
 50
90.0
 51
180.0
  0
ARC
  5
231
100
AcDbEntity
  8
0
100
AcDbCircle
 62
7
  6
BYLAYER
 10
69.6200637742
 20
120.9507019302
 40
1.0
100
AcDbArc
 50
315.0
 51
360.0
  0
ARC
  5
232
100
AcDbEntity
  8
5_CURVES
100
AcDbCircle
 62
7
  6
BYLAYER
 10
71.6200637742
 20
122.2364883679
 40
1.0
100
AcDbArc
 50
90.0
 51
180.0
  0
ARC
  5
233
100
AcDbEntity
  8
5_CURVES
100
AcDbCircle
 62
7
  6
BYLAYER
 10
69.6200637742
 20
120.9507019302
 40
1.0
100
AcDbArc
 50
315.0
 51
360.0
  0
ARC
  5
234
100
AcDbEntity
  8
5_CURVES
100
AcDbCircle
 62
7
  6
BYLAYER
 10
70.6200633716
 20
119.1222744029
 40
1.0
100
AcDbArc
 50
135.0
 51
180.0
  0
ARC
  5
235
100
AcDbEntity
  8
0
100
AcDbCircle
 62
7
  6
BYLAYER
 10
77.6462463716
 20
122.9364883679
 40
0.3
100
AcDbArc
 50
0.0
 51
90.0
  0
ARC
  5
236
100
AcDbEntity
  8
0
100
AcDbCircle
 62
7
  6
BYLAYER
 10
78.2462463716
 20
121.5364883679
 40
0.3
100
AcDbArc
 50
180.0
 51
270.0
  0
ARC
  5
237
100
AcDbEntity
  8
0
100
AcDbCircle
 62
7
  6
BYLAYER
 10
79.2962463716
 20
121.5364883679
 40
0.3
100
AcDbArc
 50
270.0
 51
360.0
  0
ARC
  5
238
100
AcDbEntity
  8
0
100
AcDbCircle
 62
7
  6
BYLAYER
 10
79.8962463716
 20
121.8964883679
 40
0.3
100
AcDbArc
 50
90.0
 51
180.0
  0
ARC
  5
239
100
AcDbEntity
  8
5_CURVES
100
AcDbCircle
 62
7
  6
BYLAYER
 10
79.8962463716
 20
121.8964883679
 40
0.3
100
AcDbArc
 50
90.0
 51
180.0
  0
ARC
  5
23A
100
AcDbEntity
  8
5_CURVES
100
AcDbCircle
 62
7
  6
BYLAYER
 10
79.2962463716
 20
121.5364883679
 40
0.3
100
AcDbArc
 50
270.0
 51
360.0
  0
ARC
  5
23B
100
AcDbEntity
  8
5_CURVES
100
AcDbCircle
 62
7
  6
BYLAYER
 10
78.2462463716
 20
121.5364883679
 40
0.3
100
AcDbArc
 50
180.0
 51
270.0
  0
ARC
  5
23C
100
AcDbEntity
  8
5_CURVES
100
AcDbCircle
 62
7
  6
BYLAYER
 10
77.6462463716
 20
122.9364883679
 40
0.3
100
AcDbArc
 50
0.0
 51
90.0
  0
ARC
  5
23D
100
AcDbEntity
  8
0
100
AcDbCircle
 62
7
  6
BYLAYER
 10
93.9462463716
 20
103.7364883679
 40
2.1
100
AcDbArc
 50
34.7153089728
 51
325.2846910272
  0
ARC
  5
23E
100
AcDbEntity
  8
5_CURVES
100
AcDbCircle
 62
7
  6
BYLAYER
 10
93.9462463716
 20
103.7364883679
 40
2.1
100
AcDbArc
 50
34.7153089728
 51
325.2846910272
  0
CIRCLE
  5
23F
100
AcDbEntity
  8
0
100
AcDbCircle
 62
7
  6
BYLAYER
 10
93.9462463716
 20
103.7364883679
 40
1.1
  0
ARC
  5
240
100
AcDbEntity
  8
0
100
AcDbCircle
 62
7
  6
BYLAYER
 10
94.6724293716
 20
94.5364883679
 40
1.0
100
AcDbArc
 50
270.0
 51
360.0
  0
ARC
  5
241
100
AcDbEntity
  8
5_CURVES
100
AcDbCircle
 62
7
  6
BYLAYER
 10
94.6724293716
 20
94.5364883679
 40
1.0
100
AcDbArc
 50
270.0
 51
360.0
  0
ARC
  5
242
100
AcDbEntity
  8
0
100
AcDbCircle
 62
7
  6
BYLAYER
 10
93.672428969
 20
122.2364883679
 40
1.0
100
AcDbArc
 50
0.0
 51
90.0
  0
ARC
  5
243
100
AcDbEntity
  8
0
100
AcDbCircle
 62
7
  6
BYLAYER
 10
94.6724293716
 20
119.1222744029
 40
1.0
100
AcDbArc
 50
0.0
 51
45.0
  0
ARC
  5
244
100
AcDbEntity
  8
0
100
AcDbCircle
 62
7
  6
BYLAYER
 10
95.672428969
 20
120.9507019302
 40
1.0
100
AcDbArc
 50
180.0
 51
225.0
  0
ARC
  5
245
100
AcDbEntity
  8
5_CURVES
100
AcDbCircle
 62
7
  6
BYLAYER
 10
94.6724293716
 20
119.1222744029
 40
1.0
100
AcDbArc
 50
0.0
 51
45.0
  0
ARC
  5
246
100
AcDbEntity
  8
5_CURVES
100
AcDbCircle
 62
7
  6
BYLAYER
 10
95.672428969
 20
120.9507019302
 40
1.0
100
AcDbArc
 50
180.0
 51
225.0
  0
ARC
  5
247
100
AcDbEntity
  8
5_CURVES
100
AcDbCircle
 62
7
  6
BYLAYER
 10
93.672428969
 20
122.2364883679
 40
1.0
100
AcDbArc
 50
0.0
 51
90.0
  0
ARC
  5
248
100
AcDbEntity
  8
0
100
AcDbCircle
 62
7
  6
BYLAYER
 10
85.3962463716
 20
121.8964883679
 40
0.3
100
AcDbArc
 50
0.0
 51
90.0
  0
ARC
  5
249
100
AcDbEntity
  8
0
100
AcDbCircle
 62
7
  6
BYLAYER
 10
85.9962463716
 20
121.5364883679
 40
0.3
100
AcDbArc
 50
180.0
 51
270.0
  0
ARC
  5
24A
100
AcDbEntity
  8
0
100
AcDbCircle
 62
7
  6
BYLAYER
 10
87.0462463716
 20
121.5364883679
 40
0.3
100
AcDbArc
 50
270.0
 51
360.0
  0
ARC
  5
24B
100
AcDbEntity
  8
0
100
AcDbCircle
 62
7
  6
BYLAYER
 10
87.6462463716
 20
122.9364883679
 40
0.3
100
AcDbArc
 50
90.0
 51
180.0
  0
ARC
  5
24C
100
AcDbEntity
  8
5_CURVES
100
AcDbCircle
 62
7
  6
BYLAYER
 10
87.6462463716
 20
122.9364883679
 40
0.3
100
AcDbArc
 50
90.0
 51
180.0
  0
ARC
  5
24D
100
AcDbEntity
  8
5_CURVES
100
AcDbCircle
 62
7
  6
BYLAYER
 10
87.0462463716
 20
121.5364883679
 40
0.3
100
AcDbArc
 50
270.0
 51
360.0
  0
ARC
  5
24E
100
AcDbEntity
  8
5_CURVES
100
AcDbCircle
 62
7
  6
BYLAYER
 10
85.9962463716
 20
121.5364883679
 40
0.3
100
AcDbArc
 50
180.0
 51
270.0
  0
ARC
  5
24F
100
AcDbEntity
  8
5_CURVES
100
AcDbCircle
 62
7
  6
BYLAYER
 10
85.3962463716
 20
121.8964883679
 40
0.3
100
AcDbArc
 50
0.0
 51
90.0
  0
ENDSEC
  0
SECTION
  2
OBJECTS
  0
DICTIONARY
  5
C
100
AcDbDictionary
280
0
281
1
  3
ACAD_GROUP
350
D
  3
ACAD_MLINESTYLE
350
17
  3
ACAD_LAYOUT
350
1A
  3
ACAD_PLOTSETTINGS
350
19
  3
ACAD_PLOTSTYLENAME
350
E
  0
DICTIONARY
  5
D
102
{ACAD_REACTORS
330
C
102
}
100
AcDbDictionary
280
0
281
1
  0
ACDBDICTIONARYWDFLT
  5
E
102
{ACAD_REACTORS
330
C
102
}
100
AcDbDictionary
281
1
  3
Normal
350
F
100
AcDbDictionaryWithDefault
340
F
  0
DICTIONARY
  5
17
102
{ACAD_REACTORS
330
C
102
}
100
AcDbDictionary
280
0
281
1
  3
Standard
350
18
  0
DICTIONARY
  5
19
102
{ACAD_REACTORS
330
C
102
}
100
AcDbDictionary
281
1
  0
DICTIONARY
  5
1A
102
{ACAD_REACTORS
330
C
102
}
100
AcDbDictionary
281
1
  3
Model
350
250
  3
Layout1
350
251
  0
ACDBPLACEHOLDER
  5
F
102
{ACAD_REACTORS
330
E
102
}
  0
MLINESTYLE
  5
18
102
{ACAD_REACTORS
330
17
102
}
100
AcDbMlineStyle
  2
STANDARD
 70
0
  3

 62
256
 51
90.0
 52
90.0
 71
2
 49
0.5
 62
256
  6
BYLAYER
 49
-0.5
 62
256
  6
BYLAYER
  0
LAYOUT
  5
250
102
{ACAD_REACTORS
330
1A
102
}
100
AcDbPlotSettings
  1

  2
none_device
  4
ISO_A4_(297.00_x_210.00_MM)
  6

 40
0.0
 41
0.0
 42
0.0
 43
0.0
 44
297.0
 45
210.0
 46
0.0
 47
0.0
 48
0.0
 49
0.0
140
0.0
141
0.0
142
1.0
143
1.0
 70
1024
 72
1
 73
0
 74
0
  7

 75
0
147
1.0
148
0.0
149
0.0
100
AcDbLayout
  1
Model
 70
0
 71
0
 10
0.0
 20
0.0
 11
297.0
 21
210.0
 12
0.0
 22
0.0
 32
0.0
 14
0.0
 24
0.0
 34
0.0
 15
0.0
 25
0.0
 35
0.0
146
0.0
 13
0.0
 23
0.0
 33
0.0
 16
1.0
 26
0.0
 36
0.0
 17
0.0
 27
1.0
 37
0.0
 76
0
330
201
345
0
346
0
  0
LAYOUT
  5
251
102
{ACAD_REACTORS
330
1A
102
}
100
AcDbPlotSettings
  1

  2
none_device
  4
ISO_A4_(297.00_x_210.00_MM)
  6

 40
0.0
 41
0.0
 42
0.0
 43
0.0
 44
297.0
 45
210.0
 46
0.0
 47
0.0
 48
0.0
 49
0.0
140
0.0
141
0.0
142
1.0
143
1.0
 70
0
 72
1
 73
0
 74
0
  7

 75
0
147
1.0
148
0.0
149
0.0
100
AcDbLayout
  1
Layout1
 70
0
 71
1
 10
0.0
 20
0.0
 11
297.0
 21
210.0
 12
0.0
 22
0.0
 32
0.0
 14
0.0
 24
0.0
 34
0.0
 15
0.0
 25
0.0
 35
0.0
146
0.0
 13
0.0
 23
0.0
 33
0.0
 16
1.0
 26
0.0
 36
0.0
 17
0.0
 27
1.0
 37
0.0
 76
0
330
202
345
0
346
0
  0
ENDSEC
  0
EOF
